<svg width="512" height="512" xmlns="http://www.w3.org/2000/svg">

 <g>
  <title>background</title>
  <rect fill="none" id="canvas_background" height="402" width="582" y="-1" x="-1"/>
 </g>
 <g>
  <title>Layer 1</title>
  <path id="svg_2" fill="#120606" d="m256.6,507.8c-138.5,-0.5 -249.3,-114 -248.1,-253.1c1.1,-136.6 111.4,-250.1 251.7,-248.4c137.1,1.6 246.9,114.8 245.3,253.7c-1.5,136 -110.8,247.7 -248.9,247.8zm-35.4,-130.3c-1.6,-0.3 -2.3,-0.4 -3.1,-0.5c-19.1,-2.7 -37,-8.4 -53,-19.8c-17.1,-12.2 -27.6,-28.6 -31.9,-48.7c-4.4,-20.5 -2.7,-41.2 0.5,-61.7c2.2,-14.1 7,-27.4 18,-37.5c1.6,-1.5 1.5,-2.7 0.7,-4.7c-6,-16.6 -5.3,-33.3 -0.3,-50c1,-3.3 2.6,-4.7 6.1,-3.4c4.2,1.5 8.5,2.8 12.4,5.1c10.7,6.3 18.9,15 26.1,24.9c1.8,2.4 3,2.8 5.5,1.1c6.2,-4.3 13.5,-5.6 20.6,-6.9c17.2,-3.2 34.5,-2.6 51.8,-1.8c10.1,0.5 20.1,2.3 29.7,5.9c3,1.1 5.7,5 8.5,3.5c2.8,-1.4 4.5,-5.2 6.7,-7.8c8.8,-10.6 18.9,-19.4 32.5,-23.7c4.4,-1.4 6.4,-0.7 7.9,4c5,16.3 5.7,32.4 -0.6,48.4c-1,2.5 -0.8,4.3 1.3,6.2c8.3,7.7 13.1,17.6 15.6,28.5c4.3,18.6 5.4,37.6 4.2,56.6c-1.2,18.2 -7.1,34.8 -19.3,48.8c-16.4,18.8 -37.8,28.1 -61.9,32.2c-2.8,0.5 -5.7,1 -8.7,1.5c7.1,11.1 10.5,22.6 10.6,35c0.1,14.3 0,28.7 0,43c0,9.3 0,18.6 0,28c15.2,-1.5 43.6,-11.6 63.4,-22.4c92.3,-50.3 138.9,-154.2 115.4,-257.1c-27.8,-122.4 -148.9,-199.7 -271.3,-173.2c-115.6,25.1 -195.6,136.5 -178.2,258.9c8.1,56.9 34.2,104.5 77.4,142.4c28.5,25 61.5,41.7 98.5,50.3c2.9,0.7 4.2,0.5 4.1,-3c-0.2,-9.8 -0.2,-19.7 0,-29.5c0,-3.3 -0.6,-4.3 -4.2,-3.6c-6.5,1.3 -13.2,2 -19.9,1.6c-21.2,-1.1 -38.4,-9.5 -50.5,-27.5c-4.1,-6.1 -6.4,-13.2 -10.3,-19.3c-6.9,-10.7 -13,-22 -24.5,-28.9c-1.5,-0.9 -3.3,-2.3 -2.4,-4.4c0.8,-2 3,-1.7 4.8,-1.9c12.8,-1 23.3,3.8 32,13c4.6,4.9 7.5,11 11.5,16.3c13.3,17.7 38.7,25.3 59.5,17.8c3,-1.1 3.9,-2.6 4.3,-5.7c1.2,-10.5 3.2,-20.8 10.5,-30z"/>
 </g>
</svg>